<svg xmlns="http://www.w3.org/2000/svg" width="36" height="36" viewBox="0 0 36 36">
    <g fill="none" fill-rule="evenodd">
        <g fill="#000" fill-rule="nonzero">
            <g>
                <g>
                    <path d="M7.793.293c.39-.39 1.024-.39 1.414 0 .36.36.388.928.083 1.32l-.083.094L2.415 8.5l6.792 6.793c.36.36.388.928.083 1.32l-.083.094c-.36.36-.928.388-1.32.083l-.094-.083-7.5-7.5c-.36-.36-.388-.928-.083-1.32l.083-.094 7.5-7.5z" transform="translate(-10 -10) translate(10 10) translate(9 10)"/>
                    <path d="M18 7.5c.552 0 1 .448 1 1 0 .513-.386.936-.883.993L18 9.5H1c-.552 0-1-.448-1-1 0-.513.386-.936.883-.993L1 7.5h17z" transform="translate(-10 -10) translate(10 10) translate(9 10)"/>
                </g>
            </g>
        </g>
    </g>
</svg>
